# Blender v2.60 (sub 0) OBJ File: 'sphere.blend'
# www.blender.org
v 0.000000 -1.000000 -0.000000
v 0.393449 -0.919346 -0.000000
v -0.000000 -0.919347 0.393449
v -0.393449 -0.919346 -0.000000
v 0.000000 -0.919346 -0.393449
v 0.365695 -0.855882 -0.365695
v 0.365695 -0.855882 0.365695
v -0.365695 -0.855882 0.365695
v -0.365695 -0.855882 -0.365695
v -0.000000 1.000000 0.000000
v 0.000000 0.919347 -0.393449
v -0.393449 0.919346 0.000000
v -0.000000 0.919346 0.393449
v 0.393449 0.919347 0.000000
v 0.365695 0.855882 -0.365695
v -0.365695 0.855882 -0.365695
v -0.365695 0.855882 0.365695
v 0.365695 0.855882 0.365695
v 1.000000 0.000000 0.000000
v 0.919347 0.000000 -0.393449
v 0.919346 0.393449 0.000000
v 0.919346 0.000000 0.393449
v 0.919346 -0.393449 0.000000
v 0.855882 -0.365695 -0.365695
v 0.855882 0.365695 -0.365695
v 0.855882 0.365695 0.365695
v 0.855882 -0.365695 0.365695
v -0.000000 0.000000 1.000000
v 0.393449 0.000000 0.919347
v -0.000000 0.393449 0.919346
v -0.393449 0.000000 0.919346
v -0.000000 -0.393449 0.919346
v 0.365695 -0.365695 0.855882
v 0.365695 0.365695 0.855882
v -0.365695 0.365695 0.855882
v -0.365695 -0.365695 0.855882
v -1.000000 0.000000 -0.000000
v -0.919346 0.000000 0.393449
v -0.919346 0.393449 -0.000000
v -0.919346 0.000000 -0.393449
v -0.919346 -0.393449 -0.000000
v -0.855882 -0.365695 0.365695
v -0.855882 0.365695 0.365695
v -0.855882 0.365695 -0.365695
v -0.855882 -0.365695 -0.365695
v 0.000000 0.000000 -1.000000
v 0.393449 0.000000 -0.919346
v 0.000000 -0.393449 -0.919346
v -0.393449 0.000000 -0.919346
v 0.000000 0.393449 -0.919346
v 0.365695 0.365695 -0.855882
v 0.365695 -0.365695 -0.855882
v -0.365695 -0.365695 -0.855882
v -0.365695 0.365695 -0.855882
v 0.335906 -0.666021 0.666021
v -0.000000 -0.707107 0.707107
v -0.335906 -0.666021 0.666021
v 0.666021 -0.666021 -0.335906
v 0.707107 -0.707107 0.000000
v 0.666021 -0.666021 0.335906
v 0.335906 -0.666021 -0.666021
v 0.000000 -0.707107 -0.707107
v -0.335906 -0.666021 -0.666021
v -0.666021 -0.666021 0.335906
v -0.707107 -0.707107 -0.000000
v -0.666021 -0.666021 -0.335906
v 0.666021 0.666021 -0.335906
v 0.707107 0.707107 0.000000
v 0.666021 0.666021 0.335906
v 0.335906 0.666021 0.666021
v -0.000000 0.707107 0.707107
v -0.335906 0.666021 0.666021
v -0.666021 0.666021 0.335906
v -0.707107 0.707107 -0.000000
v -0.666021 0.666021 -0.335906
v 0.335906 0.666021 -0.666021
v 0.000000 0.707107 -0.707107
v -0.335906 0.666021 -0.666021
v 0.666021 -0.335906 0.666021
v 0.707107 0.000000 0.707107
v 0.666020 0.335906 0.666021
v 0.666021 -0.335906 -0.666021
v 0.707107 0.000000 -0.707107
v 0.666021 0.335906 -0.666021
v -0.666021 -0.335906 0.666020
v -0.707107 0.000000 0.707107
v -0.666021 0.335906 0.666021
v -0.666021 -0.335906 -0.666021
v -0.707107 0.000000 -0.707107
v -0.666021 0.335906 -0.666021
v 0.577350 -0.577350 -0.577350
v 0.577350 -0.577350 0.577350
v -0.577350 -0.577350 0.577350
v -0.577350 -0.577350 -0.577350
v 0.577350 0.577350 -0.577350
v 0.577350 0.577350 0.577350
v -0.577350 0.577350 0.577350
v -0.577350 0.577350 -0.577350
vt 0.500000 0.125000
vt 0.500000 0.062500
vt 0.583333 0.062500
vt 0.583333 0.125000
vt 0.666667 0.062500
vt 0.666667 0.125000
vt 0.500000 0.000000
vt 0.583333 0.000000
vt 0.666667 0.000000
vt 0.583333 0.187500
vt 0.500000 0.187500
vt 0.583333 0.250000
vt 0.500000 0.250000
vt 0.666667 0.187500
vt 0.666667 0.250000
vt 0.416667 0.187500
vt 0.416667 0.125000
vt 0.333333 0.187500
vt 0.333333 0.125000
vt 0.416667 0.250000
vt 0.333333 0.250000
vt 0.416667 0.062500
vt 0.416667 0.000000
vt 0.333333 0.062500
vt 0.333333 0.000000
vt 0.500000 0.625000
vt 0.588542 0.625000
vt 0.593750 0.695312
vt 0.500000 0.691406
vt 0.598958 0.761719
vt 0.500000 0.755859
vt 0.674479 0.625000
vt 0.682292 0.699219
vt 0.718750 0.789062
vt 0.406250 0.695312
vt 0.411458 0.625000
vt 0.317708 0.699219
vt 0.325521 0.625000
vt 0.401042 0.761719
vt 0.281250 0.789062
vt 0.406250 0.554688
vt 0.500000 0.558594
vt 0.401042 0.488281
vt 0.500000 0.494141
vt 0.317708 0.550781
vt 0.281250 0.460938
vt 0.593750 0.554688
vt 0.682292 0.550781
vt 0.598958 0.488281
vt 0.718750 0.460938
vt 0.834635 0.625000
vt 0.916667 0.625000
vt 0.916667 0.687500
vt 0.835938 0.689453
vt 0.916667 0.750000
vt 0.838542 0.753906
vt 1.000000 0.625000
vt 1.000000 0.687500
vt 1.000000 0.750000
vt 0.760417 0.695312
vt 0.755208 0.625000
vt 0.770833 0.765625
vt 0.760417 0.554688
vt 0.835937 0.560547
vt 0.770833 0.484375
vt 0.838542 0.496094
vt 0.916667 0.562500
vt 1.000000 0.562500
vt 0.916667 0.500000
vt 1.000000 0.500000
vt 0.500000 0.374024
vt 0.500000 0.312500
vt 0.583333 0.312500
vt 0.585938 0.373047
vt 0.666667 0.312500
vt 0.671875 0.371094
vt 0.593750 0.429688
vt 0.500000 0.433594
vt 0.687500 0.421875
vt 0.406250 0.429688
vt 0.414063 0.373047
vt 0.312500 0.421875
vt 0.328125 0.371094
vt 0.416667 0.312500
vt 0.333333 0.312500
vt 0.165365 0.625000
vt 0.083333 0.625000
vt 0.083333 0.562500
vt 0.164063 0.560547
vt 0.083333 0.500000
vt 0.161458 0.496094
vt 0.000000 0.625000
vt 0.000000 0.562500
vt 0.000000 0.500000
vt 0.239583 0.554688
vt 0.244792 0.625000
vt 0.229167 0.484375
vt 0.239583 0.695313
vt 0.164063 0.689453
vt 0.229167 0.765625
vt 0.161458 0.753906
vt 0.083333 0.687500
vt 0.000000 0.687500
vt 0.083333 0.750000
vt 0.000000 0.750000
vt 0.500000 0.875977
vt 0.500000 0.816406
vt 0.593750 0.820312
vt 0.585938 0.876953
vt 0.687500 0.828125
vt 0.671875 0.878906
vt 0.583333 0.937500
vt 0.500000 0.937500
vt 0.583333 1.000000
vt 0.500000 1.000000
vt 0.666667 0.937500
vt 0.666667 1.000000
vt 0.416667 0.937500
vt 0.414063 0.876953
vt 0.333334 0.937500
vt 0.328125 0.878906
vt 0.416667 1.000000
vt 0.333334 1.000000
vt 0.406250 0.820312
vt 0.312500 0.828125
vn 0.000000 -1.000000 0.000000
vn 0.000000 -0.924375 -0.381451
vn 0.353008 -0.866421 -0.353008
vn 0.381451 -0.924375 0.000000
vn 0.668935 -0.668935 -0.323985
vn 0.707083 -0.707083 0.000000
vn 0.000000 -0.707083 -0.707083
vn 0.323985 -0.668935 -0.668935
vn 0.577349 -0.577349 -0.577349
vn 0.353008 -0.866421 0.353008
vn 0.000000 -0.924375 0.381451
vn 0.323985 -0.668935 0.668935
vn 0.000000 -0.707083 0.707083
vn 0.668935 -0.668935 0.323985
vn 0.577349 -0.577349 0.577349
vn -0.353008 -0.866421 0.353008
vn -0.381451 -0.924375 0.000000
vn -0.668935 -0.668935 0.323985
vn -0.707083 -0.707083 0.000000
vn -0.323985 -0.668935 0.668935
vn -0.577349 -0.577349 0.577349
vn -0.353008 -0.866421 -0.353008
vn -0.323985 -0.668935 -0.668935
vn -0.668935 -0.668935 -0.323985
vn -0.577349 -0.577349 -0.577349
vn 0.000000 1.000000 0.000000
vn 0.381451 0.924375 0.000000
vn 0.353008 0.866421 -0.353008
vn 0.000000 0.924375 -0.381451
vn 0.323985 0.668935 -0.668935
vn 0.000000 0.707083 -0.707083
vn 0.707083 0.707083 0.000000
vn 0.668935 0.668935 -0.323985
vn 0.577349 0.577349 -0.577349
vn -0.353008 0.866421 -0.353008
vn -0.381451 0.924375 0.000000
vn -0.668935 0.668935 -0.323985
vn -0.707083 0.707083 0.000000
vn -0.323985 0.668935 -0.668935
vn -0.577349 0.577349 -0.577349
vn -0.353008 0.866421 0.353008
vn 0.000000 0.924375 0.381451
vn -0.323985 0.668935 0.668935
vn 0.000000 0.707083 0.707083
vn -0.668935 0.668935 0.323985
vn -0.577349 0.577349 0.577349
vn 0.353008 0.866421 0.353008
vn 0.668935 0.668935 0.323985
vn 0.323985 0.668935 0.668935
vn 0.577349 0.577349 0.577349
vn 1.000000 0.000000 0.000000
vn 0.924375 -0.381451 0.000000
vn 0.866421 -0.353008 -0.353008
vn 0.924375 0.000000 -0.381451
vn 0.668935 -0.323985 -0.668935
vn 0.707083 0.000000 -0.707083
vn 0.866421 0.353008 -0.353008
vn 0.924375 0.381451 0.000000
vn 0.668935 0.323985 -0.668935
vn 0.866421 0.353008 0.353008
vn 0.924375 0.000000 0.381451
vn 0.668935 0.323985 0.668935
vn 0.707083 0.000000 0.707083
vn 0.866421 -0.353008 0.353008
vn 0.668935 -0.323985 0.668935
vn 0.000000 0.000000 1.000000
vn 0.000000 -0.381451 0.924375
vn 0.353008 -0.353008 0.866421
vn 0.381451 0.000000 0.924375
vn 0.353008 0.353008 0.866421
vn 0.000000 0.381451 0.924375
vn -0.353008 0.353008 0.866421
vn -0.381451 0.000000 0.924375
vn -0.668935 0.323985 0.668935
vn -0.707083 0.000000 0.707083
vn -0.353008 -0.353008 0.866421
vn -0.668935 -0.323985 0.668935
vn -1.000000 0.000000 0.000000
vn -0.924375 -0.381451 0.000000
vn -0.866421 -0.353008 0.353008
vn -0.924375 0.000000 0.381451
vn -0.866421 0.353008 0.353008
vn -0.924375 0.381451 0.000000
vn -0.866421 0.353008 -0.353008
vn -0.924375 0.000000 -0.381451
vn -0.668935 0.323985 -0.668935
vn -0.707083 0.000000 -0.707083
vn -0.866421 -0.353008 -0.353008
vn -0.668935 -0.323985 -0.668935
vn 0.000000 0.000000 -1.000000
vn 0.000000 0.381451 -0.924375
vn 0.353008 0.353008 -0.866421
vn 0.381451 0.000000 -0.924375
vn 0.353008 -0.353008 -0.866421
vn 0.000000 -0.381451 -0.924375
vn -0.353008 -0.353008 -0.866421
vn -0.381451 0.000000 -0.924375
vn -0.353008 0.353008 -0.866421
usemtl _uvimg
s 1
f 1/1/1 5/2/2 6/3/3 2/4/4
f 2/4/4 6/3/3 58/5/5 59/6/6
f 5/2/2 62/7/7 61/8/8 6/3/3
f 6/3/3 61/8/8 91/9/9 58/5/5
f 1/1/1 2/4/4 7/10/10 3/11/11
f 3/11/11 7/10/10 55/12/12 56/13/13
f 2/4/4 59/6/6 60/14/14 7/10/10
f 7/10/10 60/14/14 92/15/15 55/12/12
f 1/1/1 3/11/11 8/16/16 4/17/17
f 4/17/17 8/16/16 64/18/18 65/19/19
f 3/11/11 56/13/13 57/20/20 8/16/16
f 8/16/16 57/20/20 93/21/21 64/18/18
f 1/1/1 4/17/17 9/22/22 5/2/2
f 5/2/2 9/22/22 63/23/23 62/7/7
f 4/17/17 65/19/19 66/24/24 9/22/22
f 9/22/22 66/24/24 94/25/25 63/23/23
f 10/26/26 14/27/27 15/28/28 11/29/29
f 11/29/29 15/28/28 76/30/30 77/31/31
f 14/27/27 68/32/32 67/33/33 15/28/28
f 15/28/28 67/33/33 95/34/34 76/30/30
f 10/26/26 11/29/29 16/35/35 12/36/36
f 12/36/36 16/35/35 75/37/37 74/38/38
f 11/29/29 77/31/31 78/39/39 16/35/35
f 16/35/35 78/39/39 98/40/40 75/37/37
f 10/26/26 12/36/36 17/41/41 13/42/42
f 13/42/42 17/41/41 72/43/43 71/44/44
f 12/36/36 74/38/38 73/45/45 17/41/41
f 17/41/41 73/45/45 97/46/46 72/43/43
f 10/26/26 13/42/42 18/47/47 14/27/27
f 14/27/27 18/47/47 69/48/48 68/32/32
f 13/42/42 71/44/44 70/49/49 18/47/47
f 18/47/47 70/49/49 96/50/50 69/48/48
f 19/51/51 23/52/52 24/53/53 20/54/54
f 20/54/54 24/53/53 82/55/55 83/56/56
f 23/52/52 59/57/6 58/58/5 24/53/53
f 24/53/53 58/58/5 91/59/9 82/55/55
f 19/51/51 20/54/54 25/60/57 21/61/58
f 21/61/58 25/60/57 67/33/33 68/32/32
f 20/54/54 83/56/56 84/62/59 25/60/57
f 25/60/57 84/62/59 95/34/34 67/33/33
f 19/51/51 21/61/58 26/63/60 22/64/61
f 22/64/61 26/63/60 81/65/62 80/66/63
f 21/61/58 68/32/32 69/48/48 26/63/60
f 26/63/60 69/48/48 96/50/50 81/65/62
f 19/51/51 22/64/61 27/67/64 23/52/52
f 23/52/52 27/67/64 60/68/14 59/57/6
f 22/64/61 80/66/63 79/69/65 27/67/64
f 27/67/64 79/69/65 92/70/15 60/68/14
f 28/71/66 32/72/67 33/73/68 29/74/69
f 29/74/69 33/73/68 79/75/65 80/76/63
f 32/72/67 56/13/13 55/12/12 33/73/68
f 33/73/68 55/12/12 92/15/15 79/75/65
f 28/71/66 29/74/69 34/77/70 30/78/71
f 30/78/71 34/77/70 70/49/49 71/44/44
f 29/74/69 80/76/63 81/79/62 34/77/70
f 34/77/70 81/79/62 96/50/50 70/49/49
f 28/71/66 30/78/71 35/80/72 31/81/73
f 31/81/73 35/80/72 87/82/74 86/83/75
f 30/78/71 71/44/44 72/43/43 35/80/72
f 35/80/72 72/43/43 97/46/46 87/82/74
f 28/71/66 31/81/73 36/84/76 32/72/67
f 32/72/67 36/84/76 57/20/20 56/13/13
f 31/81/73 86/83/75 85/85/77 36/84/76
f 36/84/76 85/85/77 93/21/21 57/20/20
f 37/86/78 41/87/79 42/88/80 38/89/81
f 38/89/81 42/88/80 85/90/77 86/91/75
f 41/87/79 65/92/19 64/93/18 42/88/80
f 42/88/80 64/93/18 93/94/21 85/90/77
f 37/86/78 38/89/81 43/95/82 39/96/83
f 39/96/83 43/95/82 73/45/45 74/38/38
f 38/89/81 86/91/75 87/97/74 43/95/82
f 43/95/82 87/97/74 97/46/46 73/45/45
f 37/86/78 39/96/83 44/98/84 40/99/85
f 40/99/85 44/98/84 90/100/86 89/101/87
f 39/96/83 74/38/38 75/37/37 44/98/84
f 44/98/84 75/37/37 98/40/40 90/100/86
f 37/86/78 40/99/85 45/102/88 41/87/79
f 41/87/79 45/102/88 66/103/24 65/92/19
f 40/99/85 89/101/87 88/104/89 45/102/88
f 45/102/88 88/104/89 94/105/25 66/103/24
f 46/106/90 50/107/91 51/108/92 47/109/93
f 47/109/93 51/108/92 84/110/59 83/111/56
f 50/107/91 77/31/31 76/30/30 51/108/92
f 51/108/92 76/30/30 95/34/34 84/110/59
f 46/106/90 47/109/93 52/112/94 48/113/95
f 48/113/95 52/112/94 61/114/8 62/115/7
f 47/109/93 83/111/56 82/116/55 52/112/94
f 52/112/94 82/116/55 91/117/9 61/114/8
f 46/106/90 48/113/95 53/118/96 49/119/97
f 49/119/97 53/118/96 88/120/89 89/121/87
f 48/113/95 62/115/7 63/122/23 53/118/96
f 53/118/96 63/122/23 94/123/25 88/120/89
f 46/106/90 49/119/97 54/124/98 50/107/91
f 50/107/91 54/124/98 78/39/39 77/31/31
f 49/119/97 89/121/87 90/125/86 54/124/98
f 54/124/98 90/125/86 98/40/40 78/39/39
